<?xml version="1.0" encoding="utf-8"?>
<!-- Generator: Adobe Illustrator 15.0.0, SVG Export Plug-In . SVG Version: 6.00 Build 0)  -->
<!DOCTYPE svg PUBLIC "-//W3C//DTD SVG 1.1//EN" "http://www.w3.org/Graphics/SVG/1.1/DTD/svg11.dtd">
<svg version="1.1" id="Layer_1" xmlns="http://www.w3.org/2000/svg" xmlns:xlink="http://www.w3.org/1999/xlink" x="0px" y="0px"
	 width="425.28px" height="461.28px" viewBox="0 0 425.28 461.28" enable-background="new 0 0 425.28 461.28" xml:space="preserve">
<path fill-rule="evenodd" clip-rule="evenodd" fill="none" d="M341.807,183.504c9.68,2.498,59.726,25.906,17.27,39.579
	s-229.55,45.336-281.361,71.963c-51.811,26.626-95.706,65.486-46.774,115.859c48.933,50.374,69.801,48.935,69.801,48.935
	l266.25,0.72c0,0-142.708-73.646-144.147-113.226c-1.439-39.579,42.636-50.001,63.56-57.325
	c28.784-10.075,72.274-26.612,99.29-36.457c16.506-6.015,42.464-28.31,22.315-47.74
	C397.306,195.491,292.061,170.666,341.807,183.504z"/>
</svg>
